<svg xmlns="http://www.w3.org/2000/svg" width="333.333" height="333.333" preserveAspectRatio="xMidYMid meet" version="1.0" viewBox="0 0 250 250"><metadata>Created by potrace 1.11, written by Peter Selinger 2001-2013</metadata><g fill="#000" stroke="none"><path d="M0 1250 l0 -1250 1250 0 1250 0 0 1250 0 1250 -1250 0 -1250 0 0 -1250z m704 760 c23 -23 431 -816 508 -986 18 -41 36 -74 39 -74 3 0 16 26 29 58 46 111 491 977 516 1002 24 24 28 25 209 29 l185 3 0 -841 0 -841 -170 0 -170 0 -2 547 -3 548 -218 -425 c-150 -291 -229 -435 -252 -457 -61 -58 -190 -58 -250 0 -23 22 -104 168 -250 452 -119 231 -220 423 -223 427 -4 4 -6 -240 -4 -542 l2 -550 -170 0 -170 0 0 841 0 841 185 -3 c181 -4 185 -5 209 -29z" transform="translate(0.000000,250.000000) scale(0.100000,-0.100000)"/></g></svg>